<svg xmlns="http://www.w3.org/2000/svg" xmlns:xlink="http://www.w3.org/1999/xlink" version="1.1" id="Layer_1" x="0px"
    y="0px" viewBox="0 0 200 65" style="enable-background:new 0 0 200 65;" xml:space="preserve">
    <script xmlns="" id="custom-useragent-string-page-script" />
    <style type="text/css">
        .st0 {
            fill: #FFFFFF;
        }
    </style>
    <g>
        <path class="st0"
            d="M1.7,46.3c0.8,0.4,1.7,0.8,2.6,1.2c0.9,0.4,1.9,0.7,2.8,1c1,0.3,2,0.5,3,0.7c1,0.2,2,0.2,3,0.2   c1.6,0,3-0.2,4.1-0.6c1.1-0.4,2.1-0.9,2.8-1.5c0.7-0.6,1.3-1.3,1.6-2.1c0.3-0.8,0.5-1.5,0.5-2.3c0-0.6,0-1.2-0.1-1.7   c-0.1-0.5-0.3-1-0.5-1.5c-0.3-0.5-0.6-0.9-1-1.3c-0.4-0.4-1-0.9-1.7-1.3c-0.7-0.4-1.6-0.9-2.6-1.3c-1-0.5-2.2-0.9-3.5-1.5   c-1.4-0.5-2.7-1-3.8-1.6c-1.1-0.5-2-1-2.8-1.5c-0.8-0.5-1.5-1.1-2-1.7c-0.5-0.6-0.9-1.2-1.3-1.9c-0.3-0.7-0.5-1.4-0.7-2.2   c-0.1-0.8-0.2-1.6-0.2-2.6c0-1.4,0.3-2.8,0.9-4.1c0.6-1.3,1.5-2.4,2.6-3.4c1.2-1,2.6-1.8,4.2-2.4c1.7-0.6,3.6-0.9,5.7-0.9   c2,0,3.9,0.2,5.7,0.6c1.7,0.4,3.3,1.1,4.7,1.9l-1.3,3.5c-1.8-0.8-3.5-1.4-5.1-1.8c-1.6-0.4-3.1-0.6-4.6-0.6c-1.6,0-2.9,0.2-4.1,0.5   c-1.1,0.3-2.1,0.8-2.8,1.3c-0.7,0.6-1.3,1.3-1.6,2.1c-0.3,0.8-0.5,1.7-0.5,2.6c0,0.6,0,1.2,0.1,1.8c0.1,0.5,0.2,1,0.4,1.5   c0.2,0.5,0.5,0.9,1,1.3c0.4,0.4,1,0.8,1.6,1.3c0.7,0.4,1.5,0.8,2.5,1.3c1,0.4,2.1,0.9,3.5,1.4c1.6,0.6,3,1.2,4.2,1.7   c1.2,0.6,2.2,1.1,3,1.7c0.8,0.6,1.5,1.2,2,1.8c0.5,0.6,0.9,1.2,1.3,1.9c0.3,0.7,0.5,1.3,0.6,2c0.1,0.7,0.2,1.4,0.2,2.2   c0,0.8-0.1,1.7-0.4,2.5c-0.3,0.9-0.6,1.7-1.1,2.5c-0.5,0.8-1.1,1.5-1.9,2.2c-0.7,0.7-1.6,1.3-2.6,1.8c-1,0.5-2.1,0.9-3.3,1.2   c-1.2,0.3-2.5,0.4-4,0.4c-1.4,0-2.7-0.1-3.9-0.2c-1.2-0.1-2.3-0.3-3.4-0.6c-1-0.3-2-0.6-2.9-0.9c-0.9-0.4-1.7-0.8-2.5-1.3L1.7,46.3   L1.7,46.3z" />
        <polygon class="st0"
            points="47,52.6 47,12.5 51.1,12.5 51.1,32.6 71.5,12.5 76.3,12.5 59.7,29.1 77.2,52.6 72.2,52.6 56.7,32.1    51.1,37.3 51.1,52.6 47,52.6  " />
        <path class="st0"
            d="M138.9,34.1c0.8-0.8,1.5-1.6,2.2-2.5c0.7-0.9,1.2-1.9,1.7-2.8c0.5-1,0.8-1.9,1.1-2.9c0.2-1,0.4-1.9,0.4-2.8   c0-1.2-0.2-2.2-0.5-3.2c-0.4-0.9-0.9-1.7-1.7-2.3c-0.8-0.6-1.8-1.1-3-1.5c-1.2-0.3-2.7-0.5-4.4-0.5H127v18.5H138.9L138.9,34.1z    M123,52.6v-40h12.7c2.1,0,3.9,0.2,5.5,0.7c1.6,0.5,2.8,1.1,3.9,2c1,0.9,1.8,1.9,2.3,3.1c0.5,1.2,0.8,2.5,0.8,4   c0,1.1-0.1,2.3-0.4,3.4c-0.3,1.1-0.7,2.3-1.3,3.4c-0.6,1.1-1.3,2.3-2.2,3.5c-0.9,1.2-1.9,2.4-3.1,3.6l11.8,16.2h-4.9l-11-15.2H127   v15.2H123L123,52.6z" />
        <path class="st0"
            d="M188.9,36.3l-6.7-17c-0.1-0.4-0.3-0.7-0.3-1c-0.1-0.3-0.1-0.6-0.2-0.8c0-0.3-0.1-0.5-0.1-0.8   c0-0.2,0-0.5,0-0.8c0,0.5-0.1,1-0.2,1.6c-0.1,0.5-0.3,1.1-0.6,1.8l-6.9,17H188.9L188.9,36.3z M172.5,39.4L167,52.6h-4.1l17.2-40   h3.5l16.2,40h-4.3l-5.5-13.2H172.5L172.5,39.4z" />
        <polygon class="st0" points="99.9,52.5 95.8,52.5 95.8,12.5 99.9,12.5 99.9,52.5  " />
    </g>
</svg>